<svg width="25" height="25" viewBox="0 0 25 25" fill="none" xmlns="http://www.w3.org/2000/svg">
<g clip-path="url(#clip0_1_8395)">
<path d="M10.5201 24.42C9.19668 24.42 8.12006 23.3434 8.12006 22.02C8.12006 20.6966 9.19668 19.62 10.5201 19.62C11.8434 19.62 12.9201 20.6966 12.9201 22.02C12.9201 23.3434 11.8434 24.42 10.5201 24.42ZM10.5201 20.82C9.85837 20.82 9.32006 21.3583 9.32006 22.02C9.32006 22.6817 9.85837 23.22 10.5201 23.22C11.1817 23.22 11.7201 22.6817 11.7201 22.02C11.7201 21.3583 11.1817 20.82 10.5201 20.82Z" fill="black"/>
<path d="M18.92 24.42C17.5966 24.42 16.52 23.3434 16.52 22.02C16.52 20.6966 17.5966 19.62 18.92 19.62C20.2434 19.62 21.32 20.6966 21.32 22.02C21.32 23.3434 20.2434 24.42 18.92 24.42ZM18.92 20.82C18.2583 20.82 17.72 21.3583 17.72 22.02C17.72 22.6817 18.2583 23.22 18.92 23.22C19.5817 23.22 20.12 22.6817 20.12 22.02C20.12 21.3583 19.5817 20.82 18.92 20.82Z" fill="black"/>
<path d="M21.9674 5.77988C21.666 5.42408 21.2114 5.22001 20.7201 5.22001H6.02835L5.90917 4.50502C5.75167 3.56014 4.87797 2.82001 3.92006 2.82001H2.72006C2.3887 2.82001 2.12006 3.08865 2.12006 3.42001C2.12006 3.75137 2.3887 4.02001 2.72006 4.02001H3.92006C4.28854 4.02001 4.66492 4.33883 4.72551 4.70232L6.73096 16.735C6.88842 17.6799 7.76214 18.42 8.72003 18.42H20.72C21.0514 18.42 21.32 18.1514 21.32 17.82C21.32 17.4886 21.0514 17.22 20.72 17.22H8.72003C8.35155 17.22 7.97517 16.9012 7.91458 16.5377L7.61856 14.7616L19.5765 13.7217C20.5067 13.6408 21.3556 12.856 21.5091 11.935L22.3146 7.10232C22.3954 6.6177 22.2689 6.13569 21.9674 5.77988ZM21.1309 6.90502L20.3255 11.7377C20.2622 12.1171 19.8557 12.4929 19.4726 12.5263L7.4207 13.5742L6.22834 6.42003H20.7201C20.86 6.42003 20.9778 6.46817 21.0518 6.55555C21.1258 6.64297 21.154 6.76705 21.131 6.90505L21.1309 6.90502Z" fill="black"/>
</g>
<defs>
<clipPath id="clip0_1_8395">
<rect width="24" height="24" fill="white" transform="translate(0.920044 0.420013)"/>
</clipPath>
</defs>
</svg>
