<?xml version="1.0" encoding="utf-8"?>
<!-- Generator: Adobe Illustrator 26.0.2, SVG Export Plug-In . SVG Version: 6.00 Build 0)  -->
<svg version="1.1" id="Layer_1" xmlns="http://www.w3.org/2000/svg" xmlns:xlink="http://www.w3.org/1999/xlink" x="0px" y="0px"
	 viewBox="0 0 1042.81 299.55" style="enable-background:new 0 0 1042.81 299.55;" xml:space="preserve">
<style type="text/css">
	.st0{fill:#FBB528;}
	.st1{fill:url(#SVGID_1_);}
	.st2{fill:none;stroke:#FBB528;stroke-width:4;stroke-miterlimit:10;}
	.st3{fill:#D49A2F;}
	.st4{fill:url(#SVGID_00000048461442048383846220000007859315734736318140_);}
	.st5{fill:url(#SVGID_00000123421049369520248000000011538594425335602875_);}
	.st6{fill:url(#SVGID_00000171702593814835167970000007411901510015429767_);}
	.st7{fill:url(#SVGID_00000169533957229536315090000001900610231978785672_);}
	.st8{fill:url(#SVGID_00000181793396888464403550000016041300431545289371_);}
</style>
<path class="st0" d="M622.59,155.75c0,0,1.56,15.57,10,15.54c8.12-0.25,13.12-15.77,8.43-22.74c5.94,0.23,29.36-0.9,29.36-8.32
	s-30.29-9-30.29-9s4.06-17.09-10.31-25c-0.62,4.72-0.62,21.36-8.59,23.5c-6.87-0.23-32.4,0-32.4,0s-13.93-2.28-19.2,6.83
	c-3.44,5.79-7.62,11.12-12.42,15.85c0,0-2.57,1.77-2.92,7.25s-0.82,10.8-0.82,10.8s2.1,4.3-6.33,4.63l-83.15,0.68
	c0,0-5.38,0.42-5.5-5.23S458.44,0,458.44,0l-7.55,11.55c0,0-3.13,5.43-15.64,3.63c-0.29,0-5.68-5.15-5.68-5.15v188.39
	c0,0-1.07,8,8,7.76h175.81c0,0,8.12-2.2,11.71-8.49s1.56-17.32,1.56-17.32s-0.1-0.67-1.56-0.63s-37.48-0.59-37.48-0.59
	c-1.84,0.11-3.41-1.29-3.52-3.13c-0.01-0.18-0.01-0.36,0.01-0.54c0.06-3.83-0.24-16.78-0.24-16.78s0.12-2.74,5-2.78"/>
<path class="st0" d="M574.65,96.63c0,0,14.58-14.46,18.35-15.46s3.42-3.13,21.87,13.44c0,0,3.53,2.33,1.19,4.43
	s-16.85,14.87-16.85,14.87s-2.31,3-4.91,1.13s-16.37-14.23-16.37-14.23S574.05,97.21,574.65,96.63z"/>
<path class="st0" d="M275.91,131.07c0,0,11.32-9.57,14.21-10.24s2.66-2.07,17,8.91c0,0,2.75,1.54,0.93,2.92S295,142.51,295,142.51
	s-1.79,2-3.81,0.75s-12.73-9.42-12.73-9.42S275.45,131.46,275.91,131.07z"/>
<path class="st0" d="M312.91,131.07c0,0,11.33-9.57,14.22-10.24s2.66-2.07,17,8.91c0,0,2.74,1.54,0.92,2.92S332,142.51,332,142.51
	s-1.8,2-3.82,0.75s-12.72-9.42-12.72-9.42S312.45,131.46,312.91,131.07z"/>
<path class="st0" d="M115.31,97.56c0,0-16.75,11.14-23.07,15.52s-5.31,5.57-5.31,5.57s-0.08,66.56,0,75.5s8.51,7.92,8.51,7.92
	l286,1.8l33.34-27.21V58.27c0,0-16.86,25.3-21.24,29.29s-9.21,2-12.64,0.22s-8.91-15-8.91-15v98.52c0,4.75-4.84,4.25-4.84,4.25
	s-239-3.43-247.25-3.52s-7.11-6.38-7.11-6.38l0.94-45.19l3.43-2c0,0,119.53,1.52,122.89,1.63s3.28,2.31,3.28,2.31
	c0.27,2.33,0.27,4.67,0,7c-0.47,3.55-4.92,3.1-4.92,3.1l-105.4,1l26,13.6l-8.74,5.62c0,0,81.35,0.57,87.28,0.12
	s4.22,1.35,14.68-4.05c10.46-5.4,16.55-24.85,16.55-24.85s-0.62-21-0.47-24.85s-4.52-3.37-4.52-3.37s-94.94-0.9-116.49-0.67
	C147.28,95,127,95.12,115.31,97.56z"/>
<path class="st0" d="M911.77,124.55v37.61h-42.86v-37.95l-26.47,15.18V163h-30.91v-31.54c-38.18,8.61-30.92,38.63-30.92,38.63
	h-42.47v-31.66h-50.59l-22.49,21.14v33.73h47.47v24.26c0,0-574-1.35-574,0c74.25,2.87,75.65,10.79,75.65,10.79l-36,12.23
	c0,0,511.77,1,517.39,0s37.71-21.42,37.71-21.42s4.37-21.7,5.31-23.83c43.56,0.78,55.11-7.42,55.11-7.42h45.6l8.12-5.4l6.87,5.4
	h65.27l30.29-26.09v-60.26L911.77,124.55z M718.41,174c-0.51,0.57-1.24,0.88-2,0.86h-26c-0.53,0.01-1.05-0.12-1.51-0.39
	c-5.45-3.61-1.34-9,0.16-10.62c0.35-0.36,0.8-0.59,1.29-0.68c4-0.8,21.54-4,27.38,0.16C722.84,167.05,719.92,172,718.41,174z"/>
<linearGradient id="SVGID_1_" gradientUnits="userSpaceOnUse" x1="504.14" y1="260.67" x2="530.48" y2="260.67">
	<stop  offset="0" style="stop-color:#D49A2F"/>
	<stop  offset="1" style="stop-color:#BA8423"/>
</linearGradient>
<ellipse class="st1" cx="517.31" cy="260.67" rx="13.17" ry="12.27"/>
<path class="st2" d="M524.83,285.87c0-0.25,14.65-32.08,71.1-29.13"/>
<path class="st2" d="M511.79,285.87c0-0.25-14.64-32.08-71.1-29.13"/>
<g>
	<path class="st3" d="M95.83,57.57c-2.26-0.31-4.48-0.81-6.65-1.49c-2.01-0.63-3.95-1.45-5.8-2.45l4.06-3.33
		c2.28,1.28,4.73,2.23,7.28,2.82c2.84,0.64,5.74,0.95,8.65,0.93c4.38,0,7.77-0.54,10.18-1.63c2.41-1.09,3.6-2.62,3.58-4.62l0,0
		c0.04-1.25-0.56-2.43-1.59-3.13c-1.25-0.86-2.67-1.46-4.16-1.76c-2.15-0.47-4.32-0.82-6.5-1.05h-0.25h-0.25l-0.85-0.1
		c-3.79-0.44-6.85-0.92-9.17-1.44c-2.17-0.44-4.2-1.38-5.94-2.74c-1.65-1.34-2.55-3.39-2.44-5.51l0,0
		c-0.04-2.13,0.79-4.18,2.29-5.68c1.88-1.76,4.19-3,6.69-3.59c5.35-1.32,10.91-1.61,16.37-0.85c3.86,0.57,7.62,1.69,11.16,3.33
		l-3.79,3.39c-2.13-0.99-4.35-1.78-6.63-2.33c-2.14-0.51-4.33-0.78-6.52-0.78c-4.15,0-7.36,0.55-9.63,1.65
		c-2.27,1.1-3.4,2.67-3.39,4.69l0,0c-0.03,1.25,0.62,2.42,1.7,3.05c1.33,0.81,2.81,1.36,4.34,1.63c1.7,0.36,4.1,0.73,7.14,1.11
		l0.3,0.05l0.31,0.05l0.44,0.04l0.43,0.05c2.86,0.36,5.69,0.9,8.48,1.59c2.09,0.51,4.04,1.49,5.69,2.86
		c1.52,1.32,2.36,3.26,2.28,5.27v0.05c0.03,2.12-0.84,4.16-2.39,5.61c-1.96,1.76-4.34,2.98-6.91,3.55
		c-3.58,0.88-7.26,1.29-10.94,1.22C100.86,58.05,98.34,57.9,95.83,57.57z"/>
	<path class="st3" d="M376.61,57.57c-2.26-0.31-4.48-0.81-6.65-1.49c-2.01-0.63-3.95-1.45-5.8-2.45l4.06-3.33
		c2.28,1.28,4.73,2.23,7.28,2.82c2.84,0.64,5.74,0.95,8.65,0.93c4.38,0,7.77-0.54,10.18-1.63c2.41-1.09,3.6-2.62,3.58-4.62l0,0
		c0.04-1.25-0.56-2.43-1.6-3.13c-1.25-0.86-2.67-1.46-4.16-1.76c-2.15-0.47-4.32-0.82-6.5-1.05h-0.25h-0.25l-0.85-0.1
		c-3.79-0.44-6.85-0.92-9.17-1.44c-2.17-0.44-4.2-1.38-5.94-2.74c-1.65-1.34-2.55-3.39-2.44-5.51l0,0
		c-0.04-2.13,0.79-4.18,2.29-5.68c1.88-1.76,4.19-3,6.69-3.59c5.35-1.32,10.91-1.61,16.37-0.85c3.86,0.57,7.62,1.69,11.16,3.33
		l-3.79,3.39c-2.13-0.99-4.35-1.78-6.63-2.33c-2.14-0.51-4.33-0.78-6.52-0.78c-4.15,0-7.36,0.55-9.63,1.65
		c-2.27,1.1-3.4,2.67-3.39,4.69l0,0c-0.03,1.25,0.62,2.42,1.7,3.05c1.33,0.81,2.81,1.36,4.34,1.63c1.7,0.36,4.1,0.73,7.14,1.11
		l0.3,0.05l0.31,0.05l0.44,0.04l0.43,0.05c2.86,0.36,5.69,0.9,8.48,1.59c2.09,0.51,4.04,1.49,5.69,2.86
		c1.52,1.32,2.36,3.26,2.28,5.27v0.05c0.03,2.12-0.84,4.16-2.39,5.61c-1.96,1.76-4.34,2.98-6.91,3.55
		c-3.58,0.88-7.26,1.29-10.94,1.22C381.63,58.05,379.11,57.9,376.61,57.57z"/>
	<path class="st3" d="M141.07,56.48c-2.63-0.86-4.96-2.45-6.72-4.58c-1.56-2.02-2.39-4.51-2.33-7.06V34.66
		c-0.07-2.54,0.73-5.02,2.27-7.04c1.78-2.14,4.14-3.73,6.79-4.57c6.72-2.13,13.94-2.13,20.67,0c2.62,0.86,4.95,2.44,6.71,4.57
		c1.56,2.02,2.37,4.51,2.32,7.06v10.18c0.05,2.55-0.77,5.04-2.33,7.06c-1.76,2.13-4.08,3.72-6.71,4.58
		c-6.73,2.12-13.94,2.12-20.67,0L141.07,56.48z M158.16,52.87c1.73-0.59,3.26-1.66,4.4-3.09c1.01-1.37,1.54-3.03,1.49-4.73V34.51
		c0.04-1.72-0.5-3.4-1.54-4.78c-1.15-1.42-2.67-2.5-4.4-3.09c-4.4-1.43-9.13-1.43-13.53,0c-1.72,0.6-3.23,1.67-4.37,3.09
		c-1.04,1.37-1.58,3.06-1.54,4.78v10.55c-0.03,1.71,0.51,3.37,1.54,4.73c1.14,1.43,2.67,2.5,4.4,3.09
		C149.02,54.3,153.76,54.3,158.16,52.87L158.16,52.87z"/>
	<path class="st3" d="M219.43,38.88v5.77c0.07,2.61-0.72,5.16-2.26,7.27c-1.7,2.15-3.99,3.74-6.6,4.58
		c-3.36,1.12-6.9,1.65-10.44,1.57c-3.58,0.08-7.14-0.42-10.56-1.48c-2.59-0.78-4.91-2.27-6.68-4.32c-1.54-1.94-2.35-4.36-2.29-6.84
		V34.87c-0.07-2.6,0.72-5.15,2.26-7.25c1.68-2.16,3.97-3.77,6.58-4.62c3.37-1.12,6.9-1.65,10.44-1.57c3.04-0.05,6.08,0.38,8.99,1.25
		c2.41,0.71,4.63,1.95,6.5,3.64c1.69,1.57,2.93,3.57,3.59,5.78h-7.14c-0.53-1.4-1.4-2.64-2.55-3.61c-1.2-1-2.6-1.75-4.1-2.21
		c-1.72-0.52-3.51-0.78-5.31-0.76c-2.33-0.06-4.65,0.31-6.85,1.09c-1.7,0.61-3.19,1.71-4.27,3.16c-1.02,1.5-1.54,3.28-1.48,5.09
		v10.56c-0.05,1.67,0.47,3.31,1.49,4.64c1.15,1.37,2.68,2.37,4.39,2.9c2.25,0.71,4.61,1.05,6.97,0.99c2.31,0.06,4.6-0.29,6.79-1.04
		c3.55-1.11,5.9-4.49,5.69-8.21v-1.81h-12.29v-4.04H219.43z"/>
	<path class="st3" d="M231.19,21.82h6.6v35.87h-6.6V21.82z M235.43,37.94h31.74v4.1h-31.73L235.43,37.94z M263.64,21.82h6.6v35.87
		h-6.6V21.82z"/>
	<path class="st3" d="M298.16,21.82h6.6l20.36,35.87h-7.21l-16.42-30.54l-16.42,30.54h-7.24L298.16,21.82z M287.2,45.36h29.02v4.05
		H287.2V45.36z"/>
	<path class="st3" d="M324.32,21.82h38.92v4.05h-38.92V21.82z M340.48,24.02h6.59v33.67h-6.59V24.02z"/>
</g>
<path class="st2" d="M544.18,296.55c0,0,7.86-22.09,101.13-25c91.16-2.87,323.68,0.11,333.58-0.38c0.26,0,1.07-0.06,1.33-0.06
	c5.42-0.07,50.75-7.36,59-42.35c1.73-6.95-0.35-14.3-5.46-19.31c-5.28-5-14.35-9.9-29.46-9"/>
<path class="st2" d="M972.78,235.11c0,0,20.78-13.74,24.48,2.34c4.41,19.15-18.41,32-57.19,33.55"/>
<path class="st2" d="M498.63,296.55c0,0-7.85-22.09-101.13-25c-91.15-2.87-323.68,0.11-333.57-0.38c-0.27,0-1.07-0.06-1.34-0.06
	c-5.41-0.07-50.74-7.36-59-42.35c-1.76-6.95,0.3-14.32,5.41-19.35c5.28-5,14.34-9.9,29.45-9"/>
<path class="st2" d="M70,235.11c0,0-20.78-13.74-24.48,2.34c-4.4,19.15,18.41,32,57.19,33.55"/>
<linearGradient id="SVGID_00000180325155750182061150000003512996736900078523_" gradientUnits="userSpaceOnUse" x1="225.0395" y1="236.1713" x2="225.0395" y2="206.7915" gradientTransform="matrix(1 0 0 -1 0 302)">
	<stop  offset="0" style="stop-color:#D49A2F"/>
	<stop  offset="1" style="stop-color:#BA8423"/>
</linearGradient>
<path style="fill:url(#SVGID_00000180325155750182061150000003512996736900078523_);" d="M365.67,75c0,0,18.83,31-140.3,2.65
	c-34-6.06-38.35-6.46-79.54-10.47c-74.65-7.26-61.16,17.1-61.16,17.1s4.06,10.42,29.17,10.42S132,81.53,132,81.53
	s3.76,8.66-13.37,10s-29.92-1.79-29-12.73s72.84-7.85,135.55,1.84S368.87,110.58,365.67,75z"/>
<linearGradient id="SVGID_00000176034742241138781900000014879835385114189709_" gradientUnits="userSpaceOnUse" x1="24.09" y1="210.83" x2="50.85" y2="210.83">
	<stop  offset="0" style="stop-color:#D49A2F"/>
	<stop  offset="1" style="stop-color:#BA8423"/>
</linearGradient>
<ellipse style="fill:url(#SVGID_00000176034742241138781900000014879835385114189709_);" cx="37.47" cy="210.83" rx="13.38" ry="14.13"/>
<linearGradient id="SVGID_00000165197775821716753070000004896220820227353240_" gradientUnits="userSpaceOnUse" x1="58.05" y1="240.7" x2="76.23" y2="240.7">
	<stop  offset="0" style="stop-color:#D49A2F"/>
	<stop  offset="1" style="stop-color:#BA8423"/>
</linearGradient>
<ellipse style="fill:url(#SVGID_00000165197775821716753070000004896220820227353240_);" cx="67.14" cy="240.7" rx="9.09" ry="10.35"/>
<linearGradient id="SVGID_00000060743434236135742940000010399586650646483640_" gradientUnits="userSpaceOnUse" x1="991.96" y1="210.83" x2="1018.72" y2="210.83">
	<stop  offset="0" style="stop-color:#D49A2F"/>
	<stop  offset="1" style="stop-color:#BA8423"/>
</linearGradient>
<ellipse style="fill:url(#SVGID_00000060743434236135742940000010399586650646483640_);" cx="1005.34" cy="210.83" rx="13.38" ry="14.13"/>
<linearGradient id="SVGID_00000040535109828562197270000017829269255964338846_" gradientUnits="userSpaceOnUse" x1="966.58" y1="240.7" x2="984.76" y2="240.7">
	<stop  offset="0" style="stop-color:#D49A2F"/>
	<stop  offset="1" style="stop-color:#BA8423"/>
</linearGradient>
<ellipse style="fill:url(#SVGID_00000040535109828562197270000017829269255964338846_);" cx="975.67" cy="240.7" rx="9.09" ry="10.35"/>
</svg>
